<svg xmlns="http://www.w3.org/2000/svg" version="1.1" viewBox="-5.0 -10.0 110.0 135.0">
 <g>
  <path d="m20.18 67.039c-0.10156-0.17578-0.32422-0.23437-0.49609-0.13672-0.17578 0.10156-0.23438 0.32422-0.13672 0.49609 0.66406 1.1641 1.4062 2.2969 2.1992 3.3789 0.074218 0.097656 0.18359 0.14844 0.29297 0.14844 0.074219 0 0.14844-0.023437 0.21484-0.070312 0.16406-0.12109 0.19922-0.34766 0.078125-0.51172-0.77344-1.0547-1.5-2.168-2.1523-3.3047z"/>
  <path d="m17.082 59.793c-0.058593-0.19141-0.26172-0.30078-0.45312-0.24609-0.19141 0.058594-0.30078 0.26172-0.24609 0.45312 0.37891 1.2812 0.83984 2.5586 1.3672 3.7891 0.058594 0.13672 0.19141 0.21875 0.33594 0.21875 0.046874 0 0.09375-0.011718 0.14062-0.03125 0.18359-0.078124 0.26953-0.29297 0.19141-0.47656-0.51172-1.2031-0.96484-2.4531-1.3359-3.707z"/>
  <path d="m24.852 73.387c-0.13672-0.14844-0.36719-0.15625-0.51562-0.015625-0.14844 0.13672-0.15625 0.36719-0.015626 0.51562 0.91406 0.98047 1.8906 1.9219 2.9062 2.7891 0.066407 0.058594 0.15234 0.085938 0.23828 0.085938 0.10156 0 0.20312-0.042969 0.27734-0.12891 0.12891-0.15234 0.11328-0.38281-0.039063-0.51172-1-0.85547-1.957-1.7773-2.8516-2.7344z"/>
  <path d="m15.727 52.031c-0.011718-0.19922-0.18359-0.35547-0.38672-0.34375-0.19922 0.011719-0.35547 0.18359-0.34375 0.38672 0.078125 1.3398 0.23438 2.6875 0.46094 4.0039 0.03125 0.17578 0.18359 0.30078 0.35938 0.30078 0.019532 0 0.042969-0.003906 0.0625-0.003906 0.19922-0.035156 0.32812-0.22266 0.29688-0.42188-0.22266-1.293-0.375-2.6094-0.44922-3.9219z"/>
  <path d="m74.984 73.574c-0.89844 0.95312-1.8633 1.8672-2.8711 2.7109-0.15234 0.12891-0.17188 0.35938-0.046875 0.51172 0.074219 0.085937 0.17578 0.12891 0.27734 0.12891 0.082031 0 0.16406-0.027343 0.23438-0.085937 1.0234-0.86328 2.0117-1.7969 2.9297-2.7656 0.13672-0.14453 0.13281-0.37891-0.015624-0.51562-0.14063-0.13672-0.37109-0.12891-0.50781 0.015625z"/>
  <path d="m80.203 67.133c-0.17188-0.10156-0.39844-0.042968-0.49609 0.13281-0.66016 1.1328-1.3906 2.2383-2.1797 3.293-0.12109 0.16016-0.085938 0.39062 0.074218 0.51172 0.066407 0.050782 0.14063 0.074219 0.21875 0.074219 0.10938 0 0.21875-0.050781 0.29297-0.14453 0.80078-1.0742 1.5508-2.2031 2.2266-3.3633 0.09375-0.18359 0.035156-0.40234-0.13672-0.50391z"/>
  <path d="m84.66 51.949c-0.19922-0.011719-0.375 0.14062-0.38672 0.33984-0.085938 1.3125-0.24609 2.6289-0.48438 3.918-0.035156 0.19922 0.09375 0.38672 0.29297 0.42188 0.023438 0.003906 0.046875 0.003906 0.066407 0.003906 0.17187 0 0.32422-0.12109 0.35937-0.30078 0.23828-1.3164 0.40625-2.6641 0.49219-4 0.011719-0.19922-0.14062-0.37109-0.33984-0.38281z"/>
  <path d="m83.312 59.797c-0.19141-0.058594-0.39453 0.050781-0.45312 0.24219-0.38281 1.2539-0.84375 2.5-1.3672 3.7031-0.078126 0.18359 0.003906 0.39844 0.1875 0.48047 0.046874 0.019532 0.097656 0.03125 0.14453 0.03125 0.14062 0 0.27344-0.082031 0.33203-0.21875 0.53906-1.2266 1.0078-2.5 1.3984-3.7812 0.058593-0.19531-0.050782-0.39453-0.24219-0.45703z"/>
  <path d="m47.516 15.762h0.023437c1.3047-0.09375 2.6406-0.10938 3.9492-0.054688 0.19922 0.011719 0.37109-0.14844 0.37891-0.34766 0.007812-0.19922-0.14844-0.37109-0.34766-0.37891-1.3359-0.058594-2.6992-0.039063-4.0312 0.058593-0.19922 0.015626-0.35156 0.1875-0.33594 0.39063 0.011718 0.18359 0.17188 0.33203 0.36328 0.33203z"/>
  <path d="m55.418 16.094c1.2969 0.20312 2.5938 0.48828 3.8594 0.83984 0.03125 0.011718 0.066406 0.011718 0.097656 0.011718 0.16016 0 0.30469-0.10547 0.35156-0.26562 0.054688-0.19141-0.058593-0.39453-0.25391-0.44922-1.2891-0.35938-2.6133-0.64844-3.9414-0.85938-0.19922-0.03125-0.38672 0.10547-0.41797 0.30078-0.03125 0.20703 0.10547 0.39062 0.30469 0.42188z"/>
  <path d="m39.688 17.234c0.035156 0 0.074219-0.003906 0.10938-0.015625 1.2539-0.39062 2.5391-0.71094 3.8281-0.95312 0.19922-0.039063 0.32812-0.22656 0.28906-0.42578-0.039062-0.19922-0.22656-0.32812-0.42578-0.28906-1.3164 0.24609-2.6328 0.57422-3.9141 0.97266-0.19141 0.058593-0.30078 0.26562-0.23828 0.45312 0.050781 0.15625 0.19531 0.25781 0.35156 0.25781z"/>
  <path d="m40.285 58.781c0 1.625 1.1758 3.0664 3.0391 3.7617-0.49219 0.51562-1.0664 0.80469-1.0703 0.80859-0.14453 0.070313-0.22656 0.22656-0.19922 0.38672 0.027343 0.16016 0.15625 0.28125 0.3125 0.30078 0.027343 0.003907 0.25391 0.03125 0.58984 0.03125 0.78516 0 2.1836-0.14062 3.1914-1.0508 0.050781-0.046875 0.11328-0.078125 0.17578-0.082031 1.2461-0.10938 2.3516-0.54688 3.1836-1.1836l2.8867-0.003906c0.09375 0.003906 0.13672 0.03125 0.26172 0.12891l0.035156 0.027344c1.7031 1.2969 3.7695 1.3906 3.8555 1.3945h0.015625c0.15625 0 0.29688-0.10156 0.34375-0.24609 0.050781-0.15234-0.003906-0.32422-0.13672-0.41406-0.003906-0.003906-0.37891-0.27344-0.91406-0.87109l2.4922 0.003907c0.26172 0 0.51172-0.10156 0.69922-0.28906 0.1875-0.18359 0.28906-0.43359 0.28906-0.69922v-7.2656c0-0.54297-0.44141-0.98438-0.98438-0.98438h-5.2344-5.2344c-0.26172 0-0.51172 0.10156-0.69531 0.28906-0.18359 0.18359-0.28906 0.43359-0.28906 0.69922v1.1836c-0.38672-0.066406-0.78906-0.10547-1.2031-0.10547-2.9844 0-5.4102 1.875-5.4102 4.1797zm7.3477-5.2617c0-0.070312 0.027344-0.13281 0.074219-0.18359 0.046875-0.046876 0.11328-0.074219 0.17969-0.074219h5.2344 5.2344c0.14062 0 0.25781 0.11328 0.25781 0.25781v7.2656c0 0.070313-0.027343 0.13281-0.074219 0.18359-0.046874 0.046875-0.11328 0.082031-0.18359 0.074219l-2.9492-0.003907c-0.19141 0.011719-0.35547 0.125-0.43359 0.30078-0.085937 0.19922-0.058594 0.43359 0.078125 0.60156 0.13672 0.16406 0.26562 0.31641 0.38672 0.44922-0.67188-0.16406-1.5391-0.47656-2.3047-1.0625l-0.03125-0.023437c-0.16016-0.12109-0.35937-0.27344-0.70312-0.28125l-4.5117 0.011718c-0.066407 0-0.13281-0.027344-0.18359-0.074218-0.046875-0.046876-0.074219-0.11328-0.074219-0.18359zm-1.9336 1.8086c0.41797 0 0.82031 0.046875 1.2031 0.12109v5.3242c0 0.26172 0.10156 0.51172 0.28906 0.69922 0.1875 0.18359 0.43359 0.29297 0.69922 0.28906h0.18359c-0.54297 0.23828-1.1562 0.39844-1.8164 0.45703-0.21875 0.019531-0.42578 0.11328-0.60156 0.26562-0.60547 0.54688-1.4219 0.75391-2.0781 0.82422 0.20312-0.17969 0.41016-0.39453 0.59375-0.64062 0.082031-0.11328 0.10938-0.26172 0.0625-0.39453-0.046875-0.13672-0.15234-0.23828-0.28906-0.28125-1.7812-0.53125-2.9336-1.7891-2.9336-3.2031 0-1.9102 2.1016-3.4609 4.6875-3.4609z"/>
  <path d="m49.141 55.52c0.25-0.29688 0.60156-0.35156 0.85156-0.30078 0.11719 0.023438 0.40234 0.11328 0.5 0.42188 0.078124 0.24609 0.015624 0.53125-0.16016 0.76562-0.066406 0.085938-0.13672 0.16797-0.20312 0.25-0.30078 0.35938-0.67578 0.80078-0.72266 1.5977-0.011719 0.19922 0.14062 0.37109 0.34375 0.38281h0.019531c0.19141 0 0.35156-0.14844 0.36328-0.34375 0.03125-0.55078 0.26953-0.83594 0.55078-1.168 0.078125-0.09375 0.15625-0.18359 0.23047-0.28125 0.32031-0.42188 0.42188-0.95312 0.27344-1.4219-0.14844-0.47266-0.54297-0.81641-1.0508-0.91797-0.57422-0.11328-1.1719 0.09375-1.5508 0.54688-0.12891 0.15234-0.10938 0.38281 0.042968 0.51172s0.38281 0.10938 0.51172-0.042969z"/>
  <path d="m49.469 59.164c-0.066406 0.066407-0.10938 0.16406-0.10938 0.25781s0.039063 0.19141 0.10938 0.25781c0.066406 0.066406 0.16406 0.10937 0.25781 0.10937s0.19141-0.039062 0.25781-0.10937c0.066406-0.066407 0.10938-0.16406 0.10938-0.25781s-0.039062-0.19141-0.10938-0.25781c-0.13281-0.13672-0.37891-0.13672-0.51562 0z"/>
  <path d="m52.293 55.52c0.25-0.29688 0.60156-0.35156 0.85156-0.30078 0.11719 0.023438 0.40234 0.11328 0.5 0.42188 0.078125 0.24609 0.015625 0.53125-0.16406 0.76562-0.066407 0.085938-0.13672 0.16797-0.20312 0.25-0.30078 0.35938-0.67578 0.80078-0.72266 1.5977-0.011719 0.19922 0.14062 0.37109 0.34375 0.38281h0.019531c0.19141 0 0.35156-0.14844 0.36328-0.34375 0.03125-0.55078 0.26953-0.83594 0.55078-1.168 0.078125-0.09375 0.15625-0.18359 0.23047-0.28125 0.32031-0.42188 0.42188-0.95312 0.27344-1.4219-0.14844-0.47266-0.54297-0.81641-1.0508-0.91797-0.57422-0.11328-1.1719 0.09375-1.5508 0.54688-0.12891 0.15234-0.10938 0.38281 0.042969 0.51172 0.15625 0.12891 0.38672 0.10938 0.51562-0.042969z"/>
  <path d="m53.082 59.117c-0.019531-0.011719-0.039062-0.023438-0.0625-0.03125-0.023437-0.011719-0.046875-0.015626-0.066406-0.019532-0.11719-0.023437-0.24609 0.015625-0.32812 0.10156-0.066406 0.066406-0.10938 0.16406-0.10938 0.25781s0.039063 0.19141 0.10938 0.25781c0.066406 0.066406 0.16406 0.10938 0.25781 0.10938 0.023438 0 0.046876-0.003907 0.074219-0.007813 0.023438-0.003906 0.046875-0.011718 0.066407-0.019531 0.023437-0.011719 0.042968-0.019531 0.0625-0.03125 0.019531-0.011719 0.039062-0.027344 0.054687-0.046875 0.066406-0.066406 0.10938-0.16406 0.10938-0.25781s-0.039062-0.19141-0.10938-0.25781c-0.019531-0.023437-0.039063-0.039063-0.058594-0.054687z"/>
  <path d="m55.445 55.52c0.25-0.29688 0.60156-0.35156 0.85156-0.30078 0.11719 0.023438 0.40234 0.11328 0.5 0.42188 0.078125 0.24609 0.015625 0.53125-0.16406 0.76562-0.066406 0.085938-0.13672 0.16797-0.20312 0.25-0.30078 0.35938-0.67578 0.80078-0.72266 1.5977-0.011719 0.19922 0.14062 0.37109 0.34375 0.38281h0.019531c0.19141 0 0.35156-0.14844 0.36328-0.34375 0.03125-0.55078 0.26953-0.83594 0.55078-1.168 0.078125-0.09375 0.15625-0.18359 0.23047-0.28125 0.32031-0.42188 0.42188-0.95312 0.27344-1.4219-0.14844-0.47266-0.54297-0.81641-1.0508-0.91797-0.57422-0.11328-1.1719 0.09375-1.5508 0.54688-0.12891 0.15234-0.10938 0.38281 0.042969 0.51172 0.15625 0.12891 0.38672 0.10938 0.51562-0.042969z"/>
  <path d="m55.773 59.164c-0.066407 0.066407-0.10938 0.16406-0.10938 0.25781s0.039063 0.19141 0.10938 0.25781c0.066406 0.066406 0.16406 0.10937 0.25781 0.10937s0.19141-0.039062 0.25781-0.10937c0.066407-0.066407 0.10938-0.16406 0.10938-0.25781s-0.039063-0.19141-0.10938-0.25781c-0.13672-0.13672-0.38281-0.13672-0.51562 0z"/>
  <path d="m65.918 78.289h0.41406c0.69922 0 1.2695-0.57031 1.2695-1.2695 0-0.26172-0.078124-0.50391-0.21875-0.70703v-4.0547c0.33594-0.25391 0.55469-0.66016 0.55469-1.1133v-5.8984c0-0.77344-0.62891-1.3984-1.3984-1.3984-0.55469 0-1.0312 0.32422-1.2617 0.79297-0.35156-0.39453-0.79688-0.69922-1.3086-0.87109 1.0625-0.39844 1.8242-1.4258 1.8242-2.625 0-1.5469-1.2617-2.8047-2.8047-2.8047-1.5469 0-2.8047 1.2617-2.8047 2.8047 0 1.1992 0.76172 2.2266 1.8242 2.625-0.47656 0.16406-0.89844 0.4375-1.2383 0.79688-0.015625 0.011719-0.039062 0.015625-0.054687 0.03125l-1.9414 1.7578-1.5742-1.2891c-0.34766-0.28516-0.78125-0.41406-1.2266-0.37109-0.44531 0.046876-0.84766 0.26172-1.1328 0.60547s-0.41406 0.78125-0.37109 1.2266c0.046875 0.44531 0.26172 0.84766 0.60547 1.1328l1.5039 1.2344c-1.6133-0.23828-3.7461-0.36719-6.0117-0.36719-2.0469 0-3.9844 0.10938-5.5312 0.30078l1.3242-1.0664c0.71875-0.57812 0.83203-1.6367 0.25-2.3594-0.57812-0.71875-1.6367-0.83203-2.3594-0.25l-2.7266 2.1992-2.3867-2.6055c-0.003907-0.003906-0.011719-0.003906-0.011719-0.011719-0.35938-0.44141-0.84375-0.78125-1.3945-0.96875 1.0625-0.39844 1.8242-1.4258 1.8242-2.625 0-1.5469-1.2617-2.8047-2.8047-2.8047-1.5469 0-2.8047 1.2617-2.8047 2.8047 0 1.1992 0.76172 2.2266 1.8242 2.625-0.50391 0.17188-0.94531 0.46875-1.2969 0.85938-0.23047-0.46094-0.70312-0.77734-1.2539-0.77734-0.77344 0-1.3984 0.62891-1.3984 1.3984v5.8984c0 0.45312 0.21875 0.85938 0.55469 1.1133v4.0547c-0.13672 0.20312-0.21875 0.44531-0.21875 0.70703 0 0.69922 0.57031 1.2695 1.2695 1.2695h0.41406l-2.2461 5.6836c-0.074219 0.1875 0.015625 0.39844 0.20312 0.47266 0.046875 0.015626 0.089844 0.023438 0.13281 0.023438 0.14453 0 0.28125-0.085938 0.33594-0.23047l2.3516-5.9531h5.6641l2.3516 5.9531c0.058594 0.14062 0.19141 0.23047 0.33594 0.23047 0.046875 0 0.089844-0.007812 0.13281-0.023438 0.1875-0.074218 0.28125-0.28516 0.20313-0.47266l-2.2461-5.6836h0.32812c0.39062 0 0.73438-0.17969 0.96875-0.45703l1.2344 5.1172c0.19141 0.78906 0.89062 1.3438 1.7031 1.3438 0.13672 0 0.27734-0.015625 0.41406-0.050781 0.45312-0.10938 0.83984-0.39063 1.0859-0.78906 0.24609-0.39844 0.31641-0.87109 0.21094-1.3242l-1.8281-7.5898c-0.1875-0.78125-0.88281-1.3359-1.6875-1.3438l-3.6758-0.035156v-2.7148l0.30078 0.32813c0.31641 0.34375 0.76562 0.54687 1.2383 0.54687 0.38281 0 0.75391-0.13281 1.0508-0.37109l0.042968-0.035157c0.41797 0.17188 1.0625 0.33594 2.0586 0.48438 1.3867 0.20312 3.1641 0.33203 5.0781 0.36328v12.246c0 0.57813 0.44141 1.0508 0.98438 1.0508 0.54297 0 0.98438-0.47266 0.98438-1.0508v-12.246c1.9141-0.03125 3.6914-0.15625 5.0781-0.36328 2.4648-0.36328 2.7969-0.83594 2.7969-1.2539v-0.015625c0.18359-0.070312 0.35938-0.17188 0.50781-0.30469v3.3359l-3.6758 0.035156c-0.80469 0.007813-1.5 0.55859-1.6875 1.3438l-1.8281 7.5898c-0.10938 0.45312-0.035157 0.92578 0.21094 1.3242s0.62891 0.67969 1.0859 0.78906c0.13672 0.03125 0.27344 0.050781 0.41406 0.050781 0.8125 0 1.5117-0.55078 1.7031-1.3438l1.2383-5.1367c0.23438 0.28906 0.58594 0.47656 0.98438 0.47656h0.32812l-2.2578 5.6875c-0.074219 0.1875 0.015625 0.39844 0.20312 0.47266 0.046875 0.015625 0.089844 0.023437 0.13281 0.023437 0.14453 0 0.28125-0.085937 0.33594-0.23047l2.3516-5.9531h5.6641l2.3516 5.9531c0.058594 0.14062 0.19141 0.23047 0.33594 0.23047 0.046875 0 0.089843-0.007812 0.13281-0.023437 0.1875-0.074219 0.27734-0.28516 0.20312-0.47266zm-0.054688-13.051c0-0.37109 0.30078-0.67188 0.67188-0.67188s0.67188 0.30078 0.67188 0.67188v5.8984c0 0.37109-0.30078 0.67188-0.67188 0.67188s-0.67188-0.30078-0.67188-0.67188zm-0.054687 10.41c0.074218-0.15234 0.12891-0.31641 0.15625-0.48828 0.058594-0.23828 0.085937-0.48047 0.085937-0.71484l0.003907-1.9961c0.15234 0.054687 0.31641 0.085937 0.48437 0.085937 0.039063 0 0.078126-0.003906 0.11719-0.003906v3.2578c-0.10547-0.027343-0.21094-0.046874-0.32812-0.046874h-0.56641c0.019531-0.03125 0.035156-0.058594 0.046875-0.09375zm-4.8984-14.512c0-1.1445 0.93359-2.0781 2.0781-2.0781s2.0781 0.93359 2.0781 2.0781-0.93359 2.0781-2.0781 2.0781c-1.1445-0.003906-2.0781-0.93359-2.0781-2.0781zm-26.25 0c0-1.1445 0.93359-2.0781 2.0781-2.0781s2.0781 0.93359 2.0781 2.0781-0.93359 2.0781-2.0781 2.0781-2.0781-0.93359-2.0781-2.0781zm-0.69922 14.609h-0.54688c-0.11328 0-0.22266 0.019531-0.32812 0.046875v-3.2578c0.039062 0.003906 0.078124 0.003906 0.11719 0.003906 0.16406 0 0.32031-0.03125 0.46484-0.078124v1.9883c0 0.23438 0.03125 0.47656 0.085937 0.71484 0.027344 0.17188 0.082032 0.33203 0.15625 0.48438 0.019532 0.03125 0.039063 0.0625 0.050782 0.097656zm-1.4258-4.6094v-5.8984c0-0.37109 0.30078-0.67188 0.67188-0.67188 0.37109 0 0.67188 0.30078 0.67188 0.67188v5.8984c0 0.37109-0.30078 0.67188-0.67188 0.67188-0.37109 0.003906-0.67188-0.29688-0.67188-0.67188zm8.8555 6.4219h-7.9727c-0.30078 0-0.54297-0.24219-0.54297-0.54297s0.24219-0.54297 0.54297-0.54297h7.9727c0.30078 0 0.54297 0.24219 0.54297 0.54297s-0.24609 0.54297-0.54297 0.54297zm0.54688-7.1797c-0.37891 0.30469-0.96875 0.26172-1.2969-0.097656l-3.4492-3.7656c-0.13672-0.14844-0.36328-0.15625-0.51562-0.023437-0.14844 0.13672-0.15625 0.36328-0.023437 0.51562l2.4219 2.6406v3.8711c0 0.19922 0.16016 0.36328 0.35938 0.36328l4.0391 0.039063c0.46875 0.003906 0.87891 0.32812 0.98828 0.78516l1.8281 7.5898c0.066407 0.26562 0.019532 0.54297-0.12109 0.77344-0.14062 0.23438-0.36719 0.39844-0.63672 0.46094-0.078125 0.019531-0.16016 0.03125-0.24219 0.03125-0.47656 0-0.88672-0.32422-0.99609-0.78516l-1.5742-6.5391c-0.039062-0.16406-0.18359-0.27734-0.35156-0.27734l-0.28125-0.003907c-0.20313-0.13672-0.44141-0.21094-0.70313-0.21094h-6.582c-0.082031-0.12109-0.15625-0.25-0.21484-0.39062-0.003907-0.007813-0.007813-0.015625-0.011719-0.023438-0.046875-0.09375-0.078125-0.19141-0.09375-0.29688-0.003907-0.011718-0.003907-0.019531-0.003907-0.03125-0.046874-0.19141-0.070312-0.37891-0.070312-0.55859v-2.5781c0.12891-0.21094 0.20703-0.46094 0.20703-0.73047v-5.4336c0.36719-0.8125 1.1836-1.3789 2.1289-1.3789 0.75391 0 1.4219 0.35938 1.8516 0.91406l0.003906-0.003906 2.6133 2.8594c0.12891 0.14062 0.34766 0.15625 0.49609 0.039062l2.9922-2.4141c0.40625-0.32812 1.0039-0.26562 1.332 0.14062s0.26562 1.0039-0.14062 1.332zm8.875 13.625c0 0.17578-0.11328 0.32422-0.25391 0.32422-0.13672 0-0.25391-0.14844-0.25391-0.32422v-12.238c0.085937 0 0.16797 0.003906 0.25391 0.003906 0.085937 0 0.16797-0.003906 0.25391-0.003906zm-0.25391-12.965c-3.6172 0-6.2617-0.33203-7.457-0.66406l0.79688-0.64453c1.3984-0.26172 3.7031-0.48438 6.6602-0.48438 3.3555 0 5.8711 0.28516 7.1758 0.59375l0.023437 0.015625c0.21875 0.17578 0.47656 0.29688 0.74609 0.34766-0.80469 0.38281-3.7031 0.83594-7.9453 0.83594zm6.7969 4.9219c-0.16797 0.003906-0.3125 0.11719-0.35156 0.27734l-1.5742 6.5391c-0.11328 0.46094-0.51953 0.78516-0.99609 0.78516-0.078125 0-0.16406-0.011719-0.24219-0.03125-0.26562-0.066406-0.49219-0.22656-0.63672-0.46094-0.14063-0.23437-0.1875-0.51172-0.12109-0.77344l1.8281-7.5898c0.10938-0.45703 0.51562-0.78125 0.98828-0.78516l4.0391-0.039063c0.19922-0.003906 0.35938-0.16406 0.35938-0.36328v-4.3516l2.3086-2.0859c0.14844-0.13672 0.16016-0.36328 0.023438-0.51562-0.13672-0.14844-0.36328-0.16016-0.51562-0.023437l-3.0117 2.7266c-0.33594 0.30469-0.88672 0.31641-1.2383 0.03125l-2.6875-2.2031c-0.19531-0.16016-0.31641-0.38672-0.34375-0.64062-0.023438-0.25391 0.050781-0.49609 0.21094-0.69531 0.16016-0.19531 0.38672-0.31641 0.64062-0.34375 0.25391-0.023438 0.5 0.050781 0.69531 0.21094l1.8164 1.4883c0.14062 0.11328 0.34375 0.10937 0.47656-0.011719l2.1758-1.9688 0.015625 0.015625c0.42969-0.50391 1.0664-0.82422 1.7773-0.82422 0.96484 0 1.793 0.58594 2.1484 1.4219v5.3945c0 0.25391 0.070313 0.49219 0.1875 0.69922v2.6133c0 0.17969-0.023437 0.36719-0.070313 0.55469-0.003906 0.011719-0.003906 0.019531-0.003906 0.03125-0.015625 0.10547-0.050781 0.20703-0.097656 0.30078-0.003906 0.007812-0.007812 0.015625-0.011719 0.023438-0.058593 0.14062-0.13281 0.26562-0.21484 0.39062h-6.5703c-0.26172 0-0.5 0.078126-0.70312 0.21094zm1.0039 1.5977c-0.30078 0-0.54297-0.24219-0.54297-0.54297s0.24219-0.54297 0.54297-0.54297h7.9727c0.30078 0 0.54297 0.24219 0.54297 0.54297s-0.24219 0.54297-0.54297 0.54297z"/>
  <path d="m66.988 26.926c-0.19141-0.058593-0.39453 0.046875-0.45312 0.23828l-2.4688 8.0039c-0.074218-0.007813-0.14844-0.011719-0.22656-0.011719-1.2305 0-2.2305 1-2.2305 2.2305s1 2.2305 2.2305 2.2305c1.2305 0 2.2305-1 2.2305-2.2305 0-0.89844-0.53516-1.6719-1.3008-2.0273l2.4609-7.9805c0.058593-0.19141-0.050781-0.39453-0.24219-0.45312zm-1.6445 10.461c0 0.82812-0.67578 1.5039-1.5039 1.5039s-1.5039-0.67578-1.5039-1.5039 0.67578-1.5039 1.5039-1.5039c0.83203 0.003907 1.5039 0.67578 1.5039 1.5039z"/>
  <path d="m56.996 36.711h-8.7148c-0.19922 0-0.36328 0.16406-0.36328 0.36328s0.16406 0.36328 0.36328 0.36328h8.7109c0.19922 0 0.36328-0.16406 0.36328-0.36328 0.003906-0.19922-0.16016-0.36328-0.35938-0.36328z"/>
  <path d="m46.727 33.703h10.27c0.19922 0 0.36328-0.16406 0.36328-0.36328 0-0.19922-0.16406-0.36328-0.36328-0.36328h-10.273c-0.19922 0-0.36328 0.16406-0.36328 0.36328 0 0.20312 0.16406 0.36328 0.36719 0.36328z"/>
  <path d="m56.996 40.449h-6.8477c-0.19922 0-0.36328 0.16406-0.36328 0.36328s0.16406 0.36328 0.36328 0.36328h6.8477c0.19922 0 0.36328-0.16406 0.36328-0.36328 0-0.20312-0.16406-0.36328-0.36328-0.36328z"/>
  <path d="m75.461 34.102c0.33984 0.11328 0.69141 0.16797 1.0391 0.16797 0.51172 0 1.0195-0.12109 1.4883-0.35938 0.78906-0.39844 1.3789-1.082 1.6523-1.9219 0.27344-0.83984 0.20703-1.7383-0.19141-2.5273-0.39844-0.78906-1.082-1.3789-1.9219-1.6523-0.83984-0.27734-1.7383-0.20703-2.5273 0.19141-1.6289 0.82422-2.2852 2.8203-1.4609 4.4492 0.39844 0.78906 1.082 1.375 1.9219 1.6523zm-0.13281-5.4531c0.36719-0.18359 0.76172-0.28125 1.1641-0.28125 0.27344 0 0.54687 0.042968 0.80859 0.12891 0.65625 0.21484 1.1875 0.67188 1.5 1.2891 0.3125 0.61328 0.36328 1.3164 0.14844 1.9727-0.21484 0.65625-0.67188 1.1875-1.2891 1.5-0.61328 0.30859-1.3164 0.36328-1.9727 0.14844-0.65625-0.21875-1.1875-0.67188-1.5-1.2891-0.64062-1.2695-0.12891-2.8242 1.1406-3.4688z"/>
  <path d="m79.766 49.84 1.8203 0.85156c0.13672 0.0625 0.29687 0.039063 0.40625-0.066406 0.5-0.47266 0.94141-0.98828 1.3086-1.5312 0.36719-0.54688 0.68359-1.1445 0.9375-1.7812 0.054688-0.14062 0.019531-0.29688-0.089843-0.39844l-1.4648-1.3711c0.085937-0.375 0.14062-0.73828 0.17188-1.1016 0.023437-0.35938 0.023437-0.73438-0.011719-1.1133l1.6484-1.1484c0.12109-0.085938 0.17969-0.23828 0.14453-0.38281-0.16016-0.66797-0.38672-1.3086-0.67188-1.8984-0.28906-0.59375-0.64844-1.1641-1.0742-1.7031-0.09375-0.11719-0.24609-0.16406-0.39062-0.12109l-1.9219 0.58203c-0.39062-0.36328-0.81641-0.67578-1.2773-0.94922 0.19531-0.078125 0.38672-0.16016 0.57031-0.25391 0.44922-0.22656 0.88672-0.51172 1.293-0.84766 0.11328-0.09375 0.16406-0.25 0.11328-0.39062l-0.44922-1.4023c0.35938-0.40625 0.65625-0.85547 0.87891-1.3438l1.4648-0.14844c0.14844-0.015624 0.27344-0.12109 0.3125-0.26172 0.14062-0.50781 0.23047-1.0195 0.25781-1.5234 0.027343-0.50391 0-1.0234-0.085938-1.543-0.023438-0.14844-0.13672-0.26563-0.28125-0.29688l-1.4414-0.3125c-0.085938-0.26172-0.19141-0.51172-0.30859-0.74609s-0.25781-0.46484-0.41797-0.69141l0.60156-1.3438c0.0625-0.13672 0.03125-0.29687-0.074219-0.40234-0.36719-0.37891-0.76953-0.70703-1.1914-0.98438s-0.88672-0.51172-1.3789-0.69922c-0.14062-0.050781-0.29687-0.015625-0.39844 0.09375l-0.98828 1.0898c-0.52734-0.10938-1.0664-0.13672-1.6055-0.085938l-0.86328-1.1953c-0.085938-0.12109-0.23828-0.17578-0.38672-0.14062-0.51172 0.12891-0.99609 0.3125-1.4492 0.53906-0.44922 0.22656-0.88672 0.51172-1.293 0.84766-0.023438 0.015626-0.039063 0.042969-0.058594 0.066407-1.7539-1.2852-3.8164-2.1758-6.0547-2.5312l0.007813-3.1875h1.1914c0.19922 0 0.36328-0.16406 0.36328-0.36328 0-0.19922-0.16406-0.36328-0.36328-0.36328h-1.5547l-3.7344-0.003906h-1.5547c-0.19922 0-0.36328 0.16406-0.36328 0.36328s0.16406 0.36328 0.36328 0.36328h1.1914v3.1836c-4.3945 0.69922-8.2188 3.4336-10.293 7.4883-0.09375 0.17969-0.019531 0.39844 0.15625 0.48828 0.054688 0.027343 0.10938 0.039062 0.16797 0.039062 0.13281 0 0.25781-0.074219 0.32422-0.19922 0.625-1.2227 1.4219-2.3203 2.3438-3.2656l2.4258 2.4258c0.070313 0.070312 0.16406 0.10938 0.25781 0.10938s0.1875-0.035156 0.25781-0.10938c0.14062-0.14062 0.14062-0.37109 0-0.51562l-2.418-2.418c2.3281-2.1367 5.3711-3.4023 8.6406-3.4883v2.3906c0 0.19922 0.16406 0.36328 0.36328 0.36328 0.19922 0 0.36328-0.16406 0.36328-0.36328v-2.3906c3.0664 0.082031 5.8789 1.2031 8.0938 3.0273l0.21875 0.67578c-0.14062 0.15625-0.26562 0.32422-0.38672 0.49609l-0.88672 0.88672-1.0703 0.10938c-0.14844 0.015625-0.27344 0.12109-0.3125 0.26562-0.14062 0.50781-0.23047 1.0195-0.25781 1.5234-0.027343 0.50391 0 1.0234 0.085938 1.543 0.023438 0.14844 0.13672 0.26562 0.28125 0.29687l1.4414 0.3125c0.085938 0.26172 0.19141 0.51172 0.30859 0.74609s0.25781 0.46484 0.41797 0.69141l-0.60156 1.3438c-0.0625 0.13672-0.03125 0.29688 0.074219 0.40234 0.36719 0.37891 0.76953 0.70703 1.1914 0.98438 0.082031 0.054688 0.16797 0.10547 0.25391 0.15625-0.52344 0.20312-1.0234 0.46875-1.4844 0.78906l-1.8203-0.85156c-0.13672-0.0625-0.29688-0.039062-0.40625 0.066407-0.5 0.47266-0.94141 0.98828-1.3086 1.5312-0.36719 0.54687-0.68359 1.1445-0.9375 1.7812-0.054687 0.14062-0.019531 0.29687 0.089844 0.39844l1.4648 1.3711c-0.085938 0.37109-0.14062 0.74219-0.17188 1.1016-0.023438 0.35938-0.023438 0.73438 0.011719 1.1133l-1.6484 1.1484c-0.12109 0.085938-0.17969 0.23828-0.14453 0.38281 0.16016 0.66797 0.38672 1.3086 0.67188 1.8984 0.27734 0.57422 0.62891 1.1289 1.0352 1.6484-1.3164 0.48437-2.7305 0.75781-4.2031 0.79687l-0.003906-2.1172c0-0.19922-0.16406-0.36328-0.36328-0.36328-0.19922 0-0.36328 0.16406-0.36328 0.36328l0.003906 2.1172c-4.832-0.12891-9.1953-2.8438-11.449-7.1445-0.066406-0.125-0.19141-0.19531-0.32422-0.19141-0.058594 0-0.11328 0.011719-0.16797 0.039063-0.17578 0.09375-0.24609 0.3125-0.15234 0.49219 2.4375 4.6523 7.2109 7.543 12.461 7.543 2.5469 0 4.9336-0.68359 6.9961-1.8711 0.52344 0.47656 1.1133 0.87109 1.7539 1.1758l0.17188 2.0039c0.011719 0.14844 0.11328 0.27344 0.25781 0.31641 0.65625 0.19531 1.3242 0.32031 1.9805 0.36719 0.21094 0.015625 0.42188 0.023438 0.63672 0.023438 0.45312 0 0.91406-0.035157 1.3789-0.10156 0.14844-0.023437 0.26562-0.13281 0.30078-0.27734l0.45703-1.957c0.71094-0.21484 1.3789-0.53516 1.9883-0.96094zm-14.422-26.738c-0.49609-0.050781-0.99609-0.082031-1.5039-0.082031-0.50781 0-1.0078 0.027344-1.5039 0.078125v-3.0859h3.0039zm6.957 12.641 0.58594-1.3086c0.054687-0.12109 0.039062-0.26562-0.042969-0.37109-0.19141-0.25-0.34375-0.49609-0.47656-0.75391-0.12891-0.25781-0.23438-0.53125-0.32422-0.82812-0.039063-0.12891-0.14062-0.22656-0.27344-0.25391l-1.3984-0.30078c-0.050782-0.38672-0.0625-0.76562-0.042969-1.1406 0.019531-0.37109 0.078125-0.75391 0.17188-1.1289l1.4258-0.14453c0.13281-0.011719 0.24609-0.10156 0.30078-0.22266 0.22656-0.55078 0.55469-1.0469 0.96875-1.4844 0.09375-0.097657 0.125-0.23438 0.085938-0.36328l-0.4375-1.3633c0.30859-0.23438 0.63672-0.44141 0.96875-0.60938s0.69141-0.30859 1.0625-0.42188l0.83984 1.1641c0.078125 0.10937 0.21094 0.16406 0.34375 0.14844 0.59375-0.078125 1.1914-0.046875 1.7656 0.097656 0.12891 0.03125 0.26562-0.011719 0.35938-0.10938l0.96094-1.0586c0.35938 0.14844 0.69922 0.32813 1.0117 0.53516 0.3125 0.20312 0.61328 0.44141 0.89453 0.71094l-0.58594 1.3086c-0.054688 0.12109-0.039063 0.26562 0.042968 0.37109 0.19141 0.25 0.34375 0.49609 0.47656 0.75391 0.12891 0.25781 0.23438 0.53125 0.32422 0.82812 0.039062 0.12891 0.14062 0.22656 0.27344 0.25391l1.3984 0.30078c0.050781 0.38672 0.0625 0.76953 0.042969 1.1406-0.019532 0.37109-0.078126 0.75391-0.17188 1.1289l-1.4258 0.14453c-0.13281 0.011719-0.24609 0.10156-0.30078 0.22266-0.22656 0.55078-0.55469 1.0469-0.96875 1.4844-0.09375 0.097656-0.125 0.23438-0.085938 0.36328l0.4375 1.3633c-0.30859 0.23438-0.63672 0.44141-0.96875 0.60938-0.26172 0.12891-0.53906 0.23828-0.82422 0.33594l-0.14844-1.7344c-0.011718-0.14844-0.11328-0.27344-0.25781-0.31641-0.65625-0.19531-1.3242-0.32031-1.9805-0.36719-0.65625-0.046874-1.332-0.019531-2.0117 0.078126-0.14844 0.023437-0.26562 0.13281-0.30078 0.27734l-0.37891 1.6289c-0.14844-0.082032-0.30078-0.16797-0.44141-0.26172-0.3125-0.19922-0.61328-0.4375-0.89453-0.70703zm4.8125 14.691-0.44922 1.9219c-0.54687 0.066406-1.0859 0.078125-1.6094 0.039062-0.52344-0.039062-1.0586-0.12891-1.5859-0.26953l-0.16797-1.9648c-0.011719-0.13281-0.09375-0.25-0.21875-0.30078-0.73828-0.32422-1.4023-0.76953-1.9688-1.332-0.09375-0.09375-0.23438-0.12891-0.36328-0.089844l-1.8867 0.57422c-0.32812-0.44141-0.60938-0.89844-0.83984-1.3711-0.23047-0.47266-0.41797-0.98047-0.55859-1.5117l1.6133-1.1289c0.10938-0.078125 0.16797-0.20703 0.15234-0.33984-0.046875-0.41797-0.058594-0.80859-0.027344-1.1953 0.027344-0.38672 0.09375-0.77344 0.19922-1.1797 0.035156-0.12891-0.003906-0.26562-0.10156-0.35938l-1.4375-1.3477c0.21484-0.50391 0.47656-0.98047 0.76953-1.4141 0.29688-0.43359 0.64063-0.85156 1.0273-1.2383l1.7852 0.83594c0.12109 0.058593 0.26172 0.042969 0.37109-0.039063 0.64062-0.47656 1.3633-0.82422 2.1406-1.0391 0.12891-0.035156 0.22656-0.13672 0.25781-0.26562l0.44922-1.9219c0.54688-0.066406 1.0859-0.078125 1.6094-0.042969 0.52344 0.039063 1.0586 0.12891 1.5859 0.26953l0.16797 1.9648c0.011718 0.13281 0.09375 0.25 0.21875 0.30078 0.73828 0.32422 1.4023 0.76953 1.9688 1.332 0.09375 0.09375 0.23438 0.12891 0.36328 0.089844l1.8867-0.57422c0.32812 0.44141 0.60938 0.89844 0.83984 1.3711 0.23047 0.47266 0.41797 0.98047 0.55859 1.5117l-1.6133 1.1289c-0.10938 0.078125-0.16797 0.20703-0.15234 0.33984 0.046875 0.41797 0.058594 0.80859 0.027344 1.1953-0.027344 0.38672-0.09375 0.77344-0.19922 1.1797-0.035156 0.12891 0.003907 0.26562 0.10156 0.35938l1.4375 1.3477c-0.21484 0.50391-0.47656 0.97656-0.76953 1.4141-0.29687 0.43359-0.64062 0.85156-1.0273 1.2383l-1.7852-0.83594c-0.12109-0.058594-0.26172-0.042969-0.37109 0.039062-0.64062 0.47656-1.3633 0.82422-2.1406 1.0391-0.12891 0.035157-0.23047 0.13672-0.25781 0.26953z"/>
  <path d="m73.434 41.699c-0.14062-0.14062-0.37109-0.14062-0.51562 0l-1.9336 1.9336c-0.066406 0.066407-0.10938 0.16016-0.10938 0.25781s0.039062 0.19141 0.10938 0.25781l1.9336 1.9336c0.070312 0.070313 0.16406 0.10938 0.25781 0.10938s0.1875-0.035156 0.25781-0.10938c0.14062-0.14062 0.14062-0.37109 0-0.51562l-1.6758-1.6758 1.6758-1.6758c0.14062-0.14453 0.14062-0.375 0-0.51562z"/>
  <path d="m80.348 43.637-1.9336-1.9336c-0.14062-0.14062-0.37109-0.14062-0.51562 0-0.14063 0.14062-0.14063 0.37109 0 0.51562l1.6758 1.6758-1.6758 1.6758c-0.14063 0.14063-0.14063 0.37109 0 0.51563 0.070312 0.070312 0.16406 0.10937 0.25781 0.10937s0.1875-0.035156 0.25781-0.10937l1.9336-1.9336c0.14062-0.14453 0.14062-0.37891 0-0.51562z"/>
  <path d="m76.98 40.656c-0.1875-0.074219-0.39844 0.015625-0.47266 0.20312l-2.3594 5.8594c-0.074219 0.1875 0.015624 0.39844 0.20312 0.47266 0.046876 0.015625 0.089844 0.027344 0.13672 0.027344 0.14453 0 0.28125-0.085938 0.33594-0.22656l2.3594-5.8594c0.074218-0.1875-0.015625-0.39844-0.20312-0.47656z"/>
  <path d="m45.406 46.398v-11.59c0-2.6133-1.793-4.8203-4.2148-5.4492v-1.9258c0-5.4297-4.418-9.8477-9.8477-9.8477s-9.8477 4.418-9.8477 9.8477v1.9258c-2.4219 0.62891-4.2148 2.8359-4.2148 5.4492v11.59c0 3.1055 2.5273 5.6328 5.6328 5.6328h16.859c3.1055 0 5.6328-2.5273 5.6328-5.6328zm-23.18-18.965c0-5.0273 4.0898-9.1172 9.1172-9.1172s9.1172 4.0898 9.1172 9.1172v1.7422h-4.0117v-1.4844c0-2.957-2.2891-5.3633-5.1055-5.3633s-5.1055 2.4062-5.1055 5.3633v1.4844h-4.0117zm13.492 0.25781v1.4844h-8.7539v-1.4844c0-2.5586 1.9609-4.6367 4.3789-4.6367 2.4141 0 4.375 2.082 4.375 4.6367zm-17.707 18.707v-11.59c0-2.7031 2.1992-4.9062 4.9062-4.9062h16.855c2.7031 0 4.9062 2.1992 4.9062 4.9062v11.59c0 2.7031-2.1992 4.9062-4.9062 4.9062l-16.859-0.003907c-2.7031 0-4.9023-2.1992-4.9023-4.9023z"/>
  <path d="m31.344 33.918c-2.8164 0-5.1055 2.2891-5.1055 5.1055 0 1.8711 1.0039 3.5586 2.6367 4.4609v2.3867c0 1.3633 1.1094 2.4727 2.4688 2.4727 1.3633 0 2.4688-1.1094 2.4688-2.4727v-2.3867c1.6289-0.90234 2.6367-2.5938 2.6367-4.4609 0-2.8164-2.2891-5.1055-5.1055-5.1055zm1.9453 9.0195c-0.12109 0.0625-0.20312 0.1875-0.20312 0.32422v2.6055c0 0.96094-0.78125 1.7422-1.7422 1.7422s-1.7422-0.78125-1.7422-1.7422v-2.6055c0-0.13672-0.078124-0.26562-0.20312-0.32422-1.5-0.74609-2.4336-2.2461-2.4336-3.918 0-2.4141 1.9609-4.3789 4.3789-4.3789 2.4141 0 4.3789 1.9609 4.3789 4.3789-0.003906 1.6719-0.93359 3.1719-2.4336 3.918z"/>
 </g>
<text x="0.0" y="117.5" font-size="5.0" font-weight="bold" font-family="Arbeit Regular, Helvetica, Arial-Unicode, Arial, Sans-serif" fill="#000000">Created by bsd studio</text><text x="0.0" y="122.5" font-size="5.0" font-weight="bold" font-family="Arbeit Regular, Helvetica, Arial-Unicode, Arial, Sans-serif" fill="#000000">from Noun Project</text></svg>