<svg xmlns="http://www.w3.org/2000/svg" xmlns:xlink="http://www.w3.org/1999/xlink" version="1.1" x="0px" y="0px" viewBox="0 0 90 112.5" enable-background="new 0 0 90 90" xml:space="preserve"><path fill="#000000" d="M87.123,21.219c-0.919-1.148-2.315-1.78-3.935-1.78c-1.508,0-3.038,0.56-4.309,1.576  c-0.926,0.741-1.631,1.671-2.08,2.687c-0.018,0.004-0.035,0.002-0.052,0.008l-2.315,0.863c-0.172-0.54-1.145-3.327-3.228-4.643  c-0.003-0.001-0.089-0.055-0.091-0.056c-1.482-0.888-3.244-0.37-4.949,0.131c-0.906,0.266-1.837,0.522-2.716,0.588l0.022-0.076  c0.061-0.317,0-0.776-0.371-1.023c-0.33-0.22-0.742-0.171-1.161-0.01c-0.515-0.726-1.178-1.166-1.983-1.289  c-1.893-0.286-3.83,1.278-3.911,1.346c-0.069,0.057-0.122,0.131-0.153,0.216c-0.006,0.016-0.006,0.031-0.012,0.047  c-5.647-1.899-13.949-4.706-14.309-4.854c-0.128-0.085-0.304-0.202-3.693-0.333c-0.094-0.009-0.18,0.019-0.258,0.061  c-2.069-1.409-4.307-2.751-6.266-3.526c-0.041-0.016-0.082-0.026-0.125-0.031L9.302,8.503l-2.32-1  C6.687,7.285,5.63,5.571,4.845,4.16c-1.17-2.861-2.163-3.063-2.541-3.021C2.032,1.171,1.838,1.418,1.87,1.69l1.347,11.294  c0.03,0.253,0.255,0.429,0.503,0.438l3.201-0.068c0.098-0.002,0.193-0.033,0.273-0.089l0.843-0.586  c1.878,0.834,12.879,5.579,18.533,5.021c0.481,0.638,1.871,2.452,3.606,4.454c-6.596,1.736-7.082,3.914-7.336,5.1  c-0.023,0.111-0.044,0.212-0.071,0.3c-1.598,5.193-6.165,14.962-6.577,15.839l-1.35,0.583c-0.341,0.132-2.354,0.105-3.966,0.013  c-3.04-0.543-3.75,0.189-3.913,0.529c-0.118,0.246-0.014,0.543,0.233,0.66l10.26,4.912c0.069,0.034,0.142,0.05,0.214,0.05  c0.041,0,0.076-0.023,0.116-0.033c-6.27,12.85-7.303,28.006-7.319,28.268c0,0.008,0.004,0.015,0.004,0.022  c-0.004,0.007-0.01,0.011-0.014,0.019c-0.014,0.031-0.015,0.063-0.021,0.095l-1.422,3.49c-0.003,0.007-0.008,0.012-0.011,0.02  c0,0.001-0.001,0.004-0.002,0.005l-1.81,1.434c-0.129,0.103-0.198,0.263-0.186,0.426c0.012,0.164,0.104,0.313,0.248,0.394  l2.898,1.662c0.076,0.044,0.162,0.066,0.245,0.066c0.146,0,0.286-0.063,0.384-0.181l3.229-3.923l1.677-1.704  c0.159-0.162,0.188-0.411,0.07-0.605l-0.713-1.176c-0.033-0.055-0.076-0.099-0.125-0.135l4.909-10.327  c0.206-0.626,1.942-5.972,1.74-8.229c0.888-0.892,4.799-4.843,6.843-7.257c-0.242,2.875-0.401,8.747,1.455,14.674l1.059,14.213  c0,0.006,0.004,0.011,0.004,0.016c-0.006,0.02-0.019,0.034-0.022,0.054c-0.007,0.033-0.001,0.064-0.001,0.097l-0.643,3.716  c-0.001,0.007-0.005,0.012-0.006,0.019c0,0.002,0,0.005,0,0.006l-1.461,1.788c-0.104,0.128-0.139,0.298-0.091,0.456  c0.047,0.158,0.169,0.282,0.326,0.331l3.187,1.003c0.05,0.016,0.1,0.023,0.149,0.023c0.183,0,0.354-0.102,0.441-0.271l2.315-4.522  l1.272-2.024c0.122-0.192,0.097-0.441-0.06-0.606l-0.949-0.994c-0.041-0.044-0.09-0.074-0.141-0.1  c0.891-2.373,3.691-10.921,0.666-17.598c-0.01-0.748,0.014-5.695,2.131-9.653c0.017-0.03,0.029-0.062,0.039-0.095l0.935-3.213  c0.907-0.408,4.157-2.068,4.81-5.194c1.417,0.344,5.53,1.366,9.896,2.679c0.092,0.037,0.171,0.076,0.265,0.113  c0.06,0.022,0.12,0.034,0.181,0.034c0.007,0,0.013-0.006,0.02-0.006c1.279,0.39,2.572,0.801,3.82,1.229  c0.06,0.021,0.121,0.027,0.186,0.026l5.983-0.306c0.061,0.396,0.153,0.791,0.28,1.183c0.874,2.7,3.174,4.586,5.592,4.586  c0.479,0,0.949-0.074,1.402-0.222c2.784-0.901,4.178-4.328,3.105-7.637c-0.862-2.662-3.109-4.523-5.486-4.577  c-0.039-0.055-0.089-0.104-0.15-0.139l-1.903-1.12l-0.056-0.669c1.851,0.613,5.151,1.514,7.735,1.154l2.214,7.286l-1.397,8.996  l-2.53,2.892c-0.143,0.163-0.162,0.399-0.051,0.584c0.113,0.185,0.332,0.276,0.542,0.225l2.281-0.557l2.677,2.852  c0.096,0.102,0.227,0.157,0.361,0.157c0.047,0,0.094-0.008,0.141-0.021l2.125-0.625c0.26-0.076,0.41-0.349,0.337-0.609l-1.141-4.085  c0.455-1.115,2.924-7.41,2.094-10.715l-0.804-6.744c0.119-0.749,0.944-6.412-1.189-8.764l1.272-0.833  c0.056-0.036,0.101-0.082,0.136-0.134c1.321-0.12,2.634-0.635,3.747-1.525C88.229,27.131,88.952,23.504,87.123,21.219z   M69.543,23.908c0.435,0.133,2.218,1.013,3.772,1.831c0.061,0.032,0.125,0.051,0.189,0.056c0.071,0.038,0.148,0.064,0.229,0.064  c0.059,0,0.117-0.01,0.174-0.031l2.491-0.929c-0.005,0.024-0.017,0.047-0.022,0.071c-0.319,1.543-0.002,3.01,0.896,4.132  c0.703,0.878,1.688,1.452,2.837,1.674l-0.555,0.363l-1.831-1.274c-4.503-2.471-8.315-5.193-8.353-5.886  C69.37,23.979,69.41,23.943,69.543,23.908z M56.78,20.227c0.394-0.291,1.793-1.24,3.029-1.05c0.49,0.076,0.896,0.322,1.236,0.752  c-0.223,0.219-1.107,0.744-4.311,0.452C56.749,20.331,56.765,20.279,56.78,20.227z M41.121,15.824L41.121,15.824  c0.392,0.157,2.452,0.89,14.563,4.962c-0.027,0.415,0.026,0.808,0.168,1.173l-8.316-1.753l-2.809-1.587  c-0.045-0.026-0.095-0.044-0.146-0.054l-1.15-0.23l-3.852-2.643C40.354,15.736,40.976,15.786,41.121,15.824z M45.063,19.947  l-0.624-0.063c-0.111-0.094-0.29-0.245-0.527-0.443l0.398,0.079L45.063,19.947z M40.42,32.403  c-5.172,0.325-9.462,2.202-13.017,5.029l1.465-5.753l11.346,0.235L40.42,32.403z M2.996,2.75c0.26,0.364,0.586,0.938,0.957,1.838  c0.053,0.096,0.119,0.213,0.186,0.331c-0.029,0.083-0.044,0.17-0.024,0.262C4.254,5.84,3.803,6.414,3.471,6.736L2.996,2.75z   M27.195,16.88c-0.108-0.146-0.288-0.224-0.467-0.197c-5.663,0.782-18.411-4.964-18.54-5.023C8.03,11.589,7.845,11.606,7.7,11.706  L7.048,12.16c-0.272-0.586-0.756-2.046,0.35-3.403l1.576,0.686C9.018,9.461,9.064,9.474,9.112,9.48l21.936,2.617  c2.685,1.075,5.974,3.301,8.557,5.226c-0.55,0.673-3.202,3.781-6.996,6.047C29.751,20.31,27.237,16.936,27.195,16.88z   M16.774,44.224c0.145-0.063,0.236-0.187,0.274-0.328c0.003-0.004,0.007-0.005,0.009-0.009c0.049-0.105,4.975-10.56,6.66-16.04  c0.035-0.113,0.063-0.241,0.094-0.384c0.215-1.004,0.619-2.87,7.098-4.476c0.387,0.433,0.783,0.867,1.189,1.296  c-1.47,2.972-0.793,5.369-0.304,6.464l-3.301-0.068c-0.223-0.008-0.435,0.149-0.491,0.373l-1.75,6.875  c-0.037,0.146-0.002,0.287,0.078,0.402c-2.496,2.21-4.605,4.895-6.387,7.819c-0.192-0.13-0.451-0.119-0.621,0.049  c-0.08,0.078-0.118,0.178-0.134,0.279c-0.567-0.058-2.169-0.373-2.762-2.103L16.774,44.224z M8.696,44.797  c0.445-0.024,1.104,0.007,2.064,0.177c0.177,0.01,0.4,0.021,0.639,0.033c0.057,0.088,0.134,0.163,0.238,0.202  c0.679,0.251,0.908,1.025,0.987,1.468L8.696,44.797z M10.282,84.872l-1.898-1.09l0.665-0.527c0.042,0.109,0.091,0.22,0.161,0.329  c0.28,0.44,0.747,0.744,1.38,0.914L10.282,84.872z M20.696,59.199c-0.117,0.116-0.168,0.281-0.138,0.442  c0.288,1.537-1.108,6.298-1.647,7.946l-5.104,10.729c-0.013,0.025-0.013,0.054-0.021,0.079c-0.28,0.217-0.945,0.441-2.319-0.093  c0.119-1.617,1.506-18.025,8.667-30.561c1.764,1.853,4.654,5.063,5.064,6.336c0.036,0.113,0.112,0.197,0.206,0.258  C23.785,56.07,21.934,57.962,20.696,59.199z M32.118,87.77l-2.088-0.657l0.537-0.657c0.063,0.098,0.136,0.194,0.228,0.287  c0.368,0.369,0.891,0.563,1.546,0.595L32.118,87.77z M34.089,80.587c-0.029,0.07-0.037,0.144-0.034,0.215  c-0.285,0.248-0.909,0.491-2.152,0.304l-1.049-14.092c-0.003-0.039-0.011-0.076-0.021-0.113c-1.394-4.418-1.618-8.889-1.544-11.992  c1.109,0.696,3.585,2.072,5.838,2.072c0.155,0,0.306-0.023,0.459-0.037c-0.739,3.113-0.664,5.776-0.659,5.936  c0.002,0.066,0.018,0.132,0.046,0.192C38.337,70.343,34.132,80.484,34.089,80.587z M43.534,43.504  c-0.14-0.033-0.285-0.003-0.4,0.079c-0.117,0.083-0.191,0.212-0.206,0.354c-0.339,3.338-4.46,5.01-4.501,5.027  c-0.143,0.057-0.252,0.176-0.295,0.323l-0.984,3.388c-0.563,1.061-0.98,2.176-1.296,3.265c-0.025,0-0.05-0.008-0.076-0.003  c-2.521,0.428-5.962-1.854-6.444-2.187c0.073-1.426,0.195-2.414,0.245-2.775l3.538-2.973c0.911,0.018,4.241-0.165,5.422-3.592  c0.09-0.26-0.048-0.542-0.307-0.631c-0.258-0.09-0.541,0.048-0.631,0.308c-1.104,3.2-4.467,2.929-4.609,2.918  c-0.135-0.015-0.265,0.028-0.366,0.113l-3.719,3.125c-0.03,0.026-0.049,0.06-0.072,0.091c-0.061,0.041-0.115,0.091-0.153,0.158  c-0.32,0.559-1.345,1.748-2.603,3.118c-0.684-1.72-3.975-5.257-5.419-6.759c4.395-7.292,10.842-13.074,20.275-13.491l0.682,0.17  c0.057,0.014,0.115,0.013,0.171,0.007c1.223,1.171,3.28,2.034,7.599,1.819c0.033-0.002,0.068-0.007,0.101-0.016  c0.052-0.013,4.149-1.052,7.688-0.295c-2.183-0.201-5.487-0.161-7.713,1.468c-1.359,0.996-2.128,2.444-2.283,4.32  c-0.007,0.114-0.064,2.148,2.7,4.303C46.301,44.157,43.581,43.515,43.534,43.504z M58.241,47.675  c-1.365-0.466-2.782-0.913-4.176-1.333c-5.903-2.417-5.899-5.427-5.9-5.438c0.131-1.562,0.764-2.768,1.88-3.587  c3.134-2.296,9.083-0.984,9.142-0.971c0.011,0.002,0.021-0.001,0.032,0.001c-0.248,0.417-0.474,0.782-0.652,1.059  c-0.147,0.231-0.082,0.538,0.149,0.686c0.082,0.054,0.176,0.079,0.268,0.079c0.163,0,0.322-0.081,0.417-0.228  c0.426-0.661,4.149-6.534,3.89-9.192c-0.008-0.079-0.034-0.154-0.076-0.221l-3.188-4.938c-0.077-0.121-0.204-0.202-0.347-0.222  c-0.021-0.003-2.07-0.311-2.785-1.499c-0.095-0.157-0.161-0.323-0.2-0.499c2.352,0.209,3.954,0.032,4.785-0.523  c0.009-0.005,0.019-0.005,0.027-0.011c0.545-0.357,0.843-0.461,0.983-0.491l-0.294,0.999c-0.056,0.191,0.007,0.397,0.161,0.523  c5.93,4.874,5.16,9.108,5.172,9.107l0,0l-2.813,6.5c-0.056,0.129-0.055,0.276,0.006,0.404c1.6,3.467-3.436,8.938-4.135,9.673  L58.241,47.675z M68.969,42.681c1.992,0,3.903,1.604,4.647,3.9c0.902,2.789-0.204,5.654-2.468,6.389  c-0.354,0.114-0.723,0.172-1.097,0.172c-1.993,0-3.904-1.604-4.648-3.899c-0.443-1.367-0.421-2.791,0.063-4.009  c0.471-1.185,1.325-2.029,2.404-2.38C68.226,42.739,68.595,42.681,68.969,42.681z M67.562,41.911  c-1.363,0.443-2.436,1.492-3.018,2.956c-0.311,0.784-0.445,1.637-0.434,2.508l-2.118,0.108c1.286-1.477,3.712-4.627,3.987-7.581  l0.072,0.876c0.014,0.16,0.104,0.305,0.243,0.387L67.562,41.911z M80.558,40.466c-0.008,0.047-0.01,0.095-0.004,0.143l0.824,6.874  c0.824,3.299-2.072,10.243-2.102,10.313c-0.043,0.104-0.051,0.219-0.02,0.326l1.055,3.779l-1.362,0.4l-2.666-2.84  c-0.123-0.131-0.307-0.185-0.479-0.143l-1.039,0.254l1.593-1.82c0.062-0.07,0.103-0.158,0.116-0.25l1.438-9.25  c0.012-0.074,0.006-0.149-0.016-0.221l-2.375-7.813c-0.074-0.245-0.322-0.392-0.574-0.342c-3.436,0.71-8.971-1.514-9.025-1.536  c-0.008-0.003-0.016-0.002-0.022-0.004c-0.049-0.223-0.102-0.445-0.187-0.661l2.088-4.842c0.079-0.021,0.155-0.055,0.219-0.117  c2.828-2.77,10.64-0.831,10.719-0.811c0.066,0.017,0.133,0.019,0.196,0.009l0.329,0.229C81.253,33.533,80.872,38.622,80.558,40.466z   M84.894,28.531c-1.096,0.876-2.405,1.359-3.688,1.359c-1.312,0-2.434-0.5-3.16-1.408c-0.709-0.886-0.957-2.062-0.698-3.311  c0.267-1.283,1.03-2.483,2.153-3.382c1.095-0.876,2.404-1.358,3.688-1.358c1.311,0,2.434,0.5,3.16,1.408  C87.835,23.697,87.183,26.699,84.894,28.531z"/><text x="0" y="105" fill="#000000" font-size="5px" font-weight="bold" font-family="'Helvetica Neue', Helvetica, Arial-Unicode, Arial, Sans-serif">Created by Gilad Sotil</text><text x="0" y="110" fill="#000000" font-size="5px" font-weight="bold" font-family="'Helvetica Neue', Helvetica, Arial-Unicode, Arial, Sans-serif">from the Noun Project</text></svg>